##     ## ##    ## ####  #######  ##     ## ######## 
##     ## ###   ##  ##  ##     ## ##     ## ##       
##     ## ####  ##  ##  ##     ## ##     ## ##       
##     ## ## ## ##  ##  ##     ## ##     ## ######   
##     ## ##  ####  ##  ##  ## ## ##     ## ##       
##     ## ##   ###  ##  ##    ##  ##     ## ##       
 #######  ##    ## ####  ##### ##  #######  ######## 


#############Credits To DiNGiE & Unique#############


General
Complete name : Rock Of Ages 2012 EXTENDED BRRip x264 AAC-UNiQUE.mp4
Format : MPEG-4
Format profile : Base Media
Codec ID : isom
File size : 2.20 GiB
Duration : 2h 16mn
Overall bit rate mode : Variable
Overall bit rate : 2 312 Kbps
Encoded date : UTC 2012-09-29 15:45:14

Video
ID : 1
Format : AVC
Format/Info : Advanced Video Codec
Format profile : High@L4.1
Format settings, CABAC : Yes
Format settings, ReFrames : 3 frames
Format settings, GOP : M=4, N=23
Codec ID : avc1
Codec ID/Info : Advanced Video Coding
Duration : 2h 16mn
Bit rate mode : Variable
Bit rate : 1 969 Kbps
Maximum bit rate : 40.0 Mbps
Width : 720 pixels
Height : 304 pixels
Display aspect ratio : 2.35:1
Frame rate mode : Constant
Frame rate : 23.976 fps
Color space : YUV
Chroma subsampling : 4:2:0
Bit depth : 8 bits
Scan type : Progressive
Bits/(Pixel*Frame) : 0.375
Stream size : 1.87 GiB (85%)
Writing library : x264 core 128 r2216 198a7ea

Audio
ID : 2
Format : AAC
Format/Info : Advanced Audio Codec
Format profile : LC
Codec ID : 40
Duration : 2h 16mn
Bit rate mode : Variable
Bit rate : 339 Kbps
Maximum bit rate : 398 Kbps
Channel(s) : 6 channels
Channel positions : Front: L C R, Side: L R, LFE
Sampling rate : 48.0 KHz
Compression mode : Lossy
Stream size : 331 MiB (15%)
Language : English
Encoded date : UTC 2012-09-29 15:46:22

Subtitles : English.srt and English.French.Spanish.Portuguese.sub included in folder.

Sources : EXTENDED.1080p.BluRay.X264-BLOW - Thanks!
: EXTENDED.1080p.SUBPACK.BluRay.X264-BLOW - Thanks! 

Storyline
A small town girl and a city boy meet on the Sunset Strip, while pursuing their Hollywood dreams.

iMDB: 
http://www.imdb.com/title/tt1336608

Screen Shots:
      
http://i.imgur.com/rfOeg.png
 
http://i.imgur.com/xaTbM.png

 
http://i.imgur.com/yVS2o.png
 
http://i.imgur.com/EIBrr.png

Notes:
Resized and sharpened.


#############Credits To DiNGiE & Unique#############


##     ## ##    ## ####  #######  ##     ## ######## 
##     ## ###   ##  ##  ##     ## ##     ## ##       
##     ## ####  ##  ##  ##     ## ##     ## ##       
##     ## ## ## ##  ##  ##     ## ##     ## ######   
##     ## ##  ####  ##  ##  ## ## ##     ## ##       
##     ## ##   ###  ##  ##    ##  ##     ## ##       
 #######  ##    ## ####  ##### ##  #######  ######## 